<svg width="1440" height="623" viewBox="0 0 1440 623" fill="none" xmlns="http://www.w3.org/2000/svg">
<path d="M309.5 474L38.5 395L209.531 174.228M309.5 474L767.675 451.823M309.5 474L209.531 174.228M309.5 474L354.713 280.747M309.5 474L637.549 157.013M309.5 474L264.5 508.5M309.5 474L326 514M753 553.5L767.675 451.823M767.675 451.823L637.549 157.013M767.675 451.823L918.234 121.506M767.675 451.823L1050.51 258.152M767.675 451.823L1331.2 292.582M209.531 174.228L-37 240.5L183.721 84.924M183.721 84.924L354.713 280.747M183.721 84.924L637.549 157.013M183.721 84.924L108 45.1139L-126 103.215M354.713 280.747L637.549 157.013M637.549 157.013L918.234 121.506M1215.5 594L1331.2 292.582M984.5 575.5L1331.2 292.582M1331.2 292.582L1448.42 167.772M1331.2 292.582L1448.42 379.734M1331.2 292.582L1261.29 45.1139M918.234 121.506L1050.51 258.152M918.234 121.506L1261.29 45.1139M1050.51 258.152L1261.29 45.1139M1261.29 45.1139L1471 1" stroke="#AE74E7" stroke-opacity="0.32"/>
<circle cx="752.5" cy="553.5" r="2.5" fill="#7D02CA"/>
<circle cx="355.5" cy="280.5" r="2.5" fill="#EFE3FA"/>
<circle cx="209.5" cy="173.5" r="2.5" fill="#EFE3FA"/>
<circle cx="183.5" cy="84.5" r="2.5" fill="#EFE3FA"/>
<circle cx="309.5" cy="473.5" r="2.5" fill="#EFE3FA"/>
<circle cx="637.5" cy="157.5" r="2.5" fill="#EFE3FA"/>
<circle cx="768.5" cy="451.5" r="2.5" fill="#EFE3FA"/>
<circle cx="918.5" cy="121.5" r="2.5" fill="#EFE3FA"/>
<circle cx="1050.5" cy="257.5" r="2.5" fill="#EFE3FA"/>
<circle cx="1261.5" cy="45.5" r="2.5" fill="#EFE3FA"/>
<circle cx="1330.5" cy="292.5" r="2.5" fill="#EFE3FA"/>
<circle cx="108.093" cy="45.0898" r="2.5" fill="#EFE3FA"/>
</svg>
