<svg width="32" height="32" viewBox="0 0 32 32" fill="none" xmlns="http://www.w3.org/2000/svg">
<path fill-rule="evenodd" clip-rule="evenodd" d="M16 12C16.7364 12 17.3333 12.597 17.3333 13.3333V26.6667C17.3333 27.403 16.7364 28 16 28C15.2636 28 14.6667 27.403 14.6667 26.6667V13.3333C14.6667 12.597 15.2636 12 16 12Z" fill="#74CF0E"/>
<path fill-rule="evenodd" clip-rule="evenodd" d="M24 4C24.7364 4 25.3333 4.59695 25.3333 5.33333V26.6667C25.3333 27.403 24.7364 28 24 28C23.2636 28 22.6667 27.403 22.6667 26.6667V5.33333C22.6667 4.59695 23.2636 4 24 4Z" fill="#74CF0E"/>
<path fill-rule="evenodd" clip-rule="evenodd" d="M8.00001 20C8.73638 20 9.33334 20.597 9.33334 21.3333V26.6667C9.33334 27.403 8.73638 28 8.00001 28C7.26363 28 6.66667 27.403 6.66667 26.6667V21.3333C6.66667 20.597 7.26363 20 8.00001 20Z" fill="#74CF0E"/>
</svg>
