<svg width="32" height="32" viewBox="0 0 32 32" fill="none" xmlns="http://www.w3.org/2000/svg">
<path fill-rule="evenodd" clip-rule="evenodd" d="M8 6.66667C7.26362 6.66667 6.66667 7.26362 6.66667 8V24C6.66667 24.7364 7.26362 25.3333 8 25.3333H24C24.7364 25.3333 25.3333 24.7364 25.3333 24V8C25.3333 7.26362 24.7364 6.66667 24 6.66667H8ZM4 8C4 5.79086 5.79086 4 8 4H24C26.2091 4 28 5.79086 28 8V24C28 26.2091 26.2091 28 24 28H8C5.79086 28 4 26.2091 4 24V8Z" fill="#40BAFA"/>
<path fill-rule="evenodd" clip-rule="evenodd" d="M10.6667 12C10.6667 11.2636 11.2636 10.6667 12 10.6667H20C20.7364 10.6667 21.3333 11.2636 21.3333 12V20C21.3333 20.7364 20.7364 21.3333 20 21.3333H12C11.2636 21.3333 10.6667 20.7364 10.6667 20V12ZM13.3333 13.3333V18.6667H18.6667V13.3333H13.3333Z" fill="#40BAFA"/>
<path fill-rule="evenodd" clip-rule="evenodd" d="M12 0C12.7364 0 13.3333 0.596954 13.3333 1.33333V5.33333C13.3333 6.06971 12.7364 6.66667 12 6.66667C11.2636 6.66667 10.6667 6.06971 10.6667 5.33333V1.33333C10.6667 0.596954 11.2636 0 12 0Z" fill="#40BAFA"/>
<path fill-rule="evenodd" clip-rule="evenodd" d="M20 0C20.7364 0 21.3333 0.596954 21.3333 1.33333V5.33333C21.3333 6.06971 20.7364 6.66667 20 6.66667C19.2636 6.66667 18.6667 6.06971 18.6667 5.33333V1.33333C18.6667 0.596954 19.2636 0 20 0Z" fill="#40BAFA"/>
<path fill-rule="evenodd" clip-rule="evenodd" d="M12 25.3333C12.7364 25.3333 13.3333 25.9303 13.3333 26.6667V30.6667C13.3333 31.403 12.7364 32 12 32C11.2636 32 10.6667 31.403 10.6667 30.6667V26.6667C10.6667 25.9303 11.2636 25.3333 12 25.3333Z" fill="#40BAFA"/>
<path fill-rule="evenodd" clip-rule="evenodd" d="M20 25.3333C20.7364 25.3333 21.3333 25.9303 21.3333 26.6667V30.6667C21.3333 31.403 20.7364 32 20 32C19.2636 32 18.6667 31.403 18.6667 30.6667V26.6667C18.6667 25.9303 19.2636 25.3333 20 25.3333Z" fill="#40BAFA"/>
<path fill-rule="evenodd" clip-rule="evenodd" d="M25.3333 12C25.3333 11.2636 25.9303 10.6667 26.6667 10.6667H30.6667C31.403 10.6667 32 11.2636 32 12C32 12.7364 31.403 13.3333 30.6667 13.3333H26.6667C25.9303 13.3333 25.3333 12.7364 25.3333 12Z" fill="#40BAFA"/>
<path fill-rule="evenodd" clip-rule="evenodd" d="M25.3333 18.6667C25.3333 17.9303 25.9303 17.3333 26.6667 17.3333H30.6667C31.403 17.3333 32 17.9303 32 18.6667C32 19.403 31.403 20 30.6667 20H26.6667C25.9303 20 25.3333 19.403 25.3333 18.6667Z" fill="#40BAFA"/>
<path fill-rule="evenodd" clip-rule="evenodd" d="M0 12C0 11.2636 0.596954 10.6667 1.33333 10.6667H5.33333C6.06971 10.6667 6.66667 11.2636 6.66667 12C6.66667 12.7364 6.06971 13.3333 5.33333 13.3333H1.33333C0.596954 13.3333 0 12.7364 0 12Z" fill="#40BAFA"/>
<path fill-rule="evenodd" clip-rule="evenodd" d="M0 18.6666C0 17.9302 0.596954 17.3333 1.33333 17.3333H5.33333C6.06971 17.3333 6.66667 17.9302 6.66667 18.6666C6.66667 19.403 6.06971 19.9999 5.33333 19.9999H1.33333C0.596954 19.9999 0 19.403 0 18.6666Z" fill="#40BAFA"/>
</svg>
