<svg width="32" height="32" viewBox="0 0 32 32" fill="none" xmlns="http://www.w3.org/2000/svg">
<path fill-rule="evenodd" clip-rule="evenodd" d="M16 3.33341C13.171 3.33341 10.4579 4.45722 8.45752 6.45761C6.45714 8.458 5.33333 11.1711 5.33333 14.0001V22.0001C5.33333 22.7365 4.73638 23.3334 4 23.3334C3.26362 23.3334 2.66666 22.7365 2.66666 22.0001V14.0001C2.66666 10.4639 4.07142 7.07248 6.57191 4.57199C9.07239 2.07151 12.4638 0.666748 16 0.666748C19.5362 0.666748 22.9276 2.07151 25.4281 4.57199C27.9286 7.07248 29.3333 10.4639 29.3333 14.0001V22.0001C29.3333 22.7365 28.7364 23.3334 28 23.3334C27.2636 23.3334 26.6667 22.7365 26.6667 22.0001V18.0001V14.0001C26.6667 11.1711 25.5429 8.458 23.5425 6.45761C21.5421 4.45722 18.829 3.33341 16 3.33341Z" fill="#597EF7"/>
<path fill-rule="evenodd" clip-rule="evenodd" d="M24 18.0001C23.6464 18.0001 23.3072 18.1406 23.0572 18.3906C22.8071 18.6407 22.6667 18.9798 22.6667 19.3334V23.3334C22.6667 23.687 22.8071 24.0262 23.0572 24.2762C23.3072 24.5263 23.6464 24.6667 24 24.6667H25.3333C25.687 24.6667 26.0261 24.5263 26.2761 24.2762C26.5262 24.0262 26.6667 23.687 26.6667 23.3334V18.0001H24ZM21.1716 16.505C21.9217 15.7548 22.9391 15.3334 24 15.3334H28C28.7364 15.3334 29.3333 15.9304 29.3333 16.6667V23.3334C29.3333 24.3943 28.9119 25.4117 28.1618 26.1618C27.4116 26.912 26.3942 27.3334 25.3333 27.3334H24C22.9391 27.3334 21.9217 26.912 21.1716 26.1618C20.4214 25.4117 20 24.3943 20 23.3334V19.3334C20 18.2725 20.4214 17.2551 21.1716 16.505Z" fill="#597EF7"/>
<path d="M4 20.5V25.5C4 27.7091 5.79086 29.5 8 29.5H10" stroke="#597EF7" stroke-width="2.67"/>
<path d="M10 27.9927C10 27.4404 10.4477 26.9927 11 26.9927H14.0803C15.1405 26.9927 16 27.8522 16 28.9124V28.9124C16 29.9726 15.1405 30.8321 14.0803 30.8321H10V27.9927Z" fill="#597EF7"/>
</svg>
