<svg width="32" height="32" viewBox="0 0 32 32" fill="none" xmlns="http://www.w3.org/2000/svg">
<path fill-rule="evenodd" clip-rule="evenodd" d="M5.95262 20.6194C7.20286 19.3691 8.89856 18.6667 10.6667 18.6667H21.3333C23.1014 18.6667 24.7971 19.3691 26.0474 20.6194C27.2976 21.8696 28 23.5653 28 25.3334V28.0001C28 28.7365 27.403 29.3334 26.6667 29.3334C25.9303 29.3334 25.3333 28.7365 25.3333 28.0001V25.3334C25.3333 24.2726 24.9119 23.2551 24.1618 22.505C23.4116 21.7548 22.3942 21.3334 21.3333 21.3334H10.6667C9.6058 21.3334 8.58839 21.7548 7.83824 22.505C7.08809 23.2551 6.66667 24.2725 6.66667 25.3334V28.0001C6.66667 28.7365 6.06971 29.3334 5.33333 29.3334C4.59695 29.3334 4 28.7365 4 28.0001V25.3334C4 23.5653 4.70238 21.8696 5.95262 20.6194Z" fill="#ffffff"/>
<path fill-rule="evenodd" clip-rule="evenodd" d="M16 5.33341C13.7909 5.33341 12 7.12428 12 9.33341C12 11.5426 13.7909 13.3334 16 13.3334C18.2091 13.3334 20 11.5426 20 9.33341C20 7.12428 18.2091 5.33341 16 5.33341ZM9.33334 9.33341C9.33334 5.65152 12.3181 2.66675 16 2.66675C19.6819 2.66675 22.6667 5.65152 22.6667 9.33341C22.6667 13.0153 19.6819 16.0001 16 16.0001C12.3181 16.0001 9.33334 13.0153 9.33334 9.33341Z" fill="#ffffff"/>
</svg>
