<svg width="12" height="12" viewBox="0 0 12 12" fill="none" xmlns="http://www.w3.org/2000/svg">
<rect width="12" height="12" fill="white"/>
<path fill-rule="evenodd" clip-rule="evenodd" d="M1.13847 3.13261C1.33085 2.95938 1.62724 2.97492 1.80047 3.16731L5.99832 7.82949L10.1962 3.16731C10.3694 2.97492 10.6658 2.95938 10.8582 3.13261C11.0506 3.30584 11.0661 3.60223 10.8929 3.79462L6.42802 8.75333C6.40259 8.80381 6.36753 8.85052 6.32299 8.89062C6.23042 8.97398 6.11375 9.01362 5.99832 9.01089C5.88289 9.01362 5.76623 8.97398 5.67365 8.89062C5.62911 8.85052 5.59405 8.80381 5.56862 8.75333L1.10377 3.79462C0.930546 3.60223 0.946079 3.30584 1.13847 3.13261Z" fill="#38385F"/>
</svg>
