<svg width="16" height="16" viewBox="0 0 16 16" fill="none" xmlns="http://www.w3.org/2000/svg">
<g opacity="0.65">
<path d="M8.87061 7.99863L12.8519 4.02051C13.0925 3.77988 13.0925 3.39082 12.8519 3.15176C12.6112 2.91113 12.2222 2.91113 11.9831 3.15176L8.00029 7.12832L4.01748 3.1502C3.77686 2.90957 3.38779 2.90957 3.14873 3.1502C2.90811 3.39082 2.90811 3.77988 3.14873 4.01895L7.12998 7.99707L3.14873 11.9768C2.90811 12.2174 2.90811 12.6064 3.14873 12.8455C3.26904 12.9658 3.42686 13.0252 3.58311 13.0252C3.74092 13.0252 3.89717 12.9658 4.01748 12.8455L8.00029 8.86738L11.9831 12.8471C12.1034 12.9674 12.2597 13.0268 12.4175 13.0268C12.5753 13.0268 12.7315 12.9674 12.8519 12.8471C13.0925 12.6064 13.0925 12.2174 12.8519 11.9783L8.87061 7.99863Z" fill="black"/>
</g>
</svg>
