<svg width="25" height="24" viewBox="0 0 25 24" fill="none" xmlns="http://www.w3.org/2000/svg">
<path fill-rule="evenodd" clip-rule="evenodd" d="M12.7947 0C6.16655 0 0.794678 5.37188 0.794678 12C0.794678 18.6281 6.16655 24 12.7947 24C19.4228 24 24.7947 18.6281 24.7947 12C24.7947 5.37188 19.4228 0 12.7947 0ZM20.0861 19.2914C19.1392 20.2383 18.0353 20.9836 16.8072 21.5016C15.5369 22.0406 14.1869 22.3125 12.7947 22.3125C11.4025 22.3125 10.0525 22.0406 8.78221 21.5039C7.55408 20.9836 6.45252 20.2406 5.5033 19.2937C4.55643 18.3469 3.81111 17.243 3.29314 16.0148C2.75408 14.7422 2.48221 13.3922 2.48221 12C2.48221 10.6078 2.75408 9.25781 3.2908 7.9875C3.81111 6.75937 4.55408 5.65781 5.50096 4.70859C6.44783 3.76172 7.55174 3.01641 8.77986 2.49844C10.0525 1.95938 11.4025 1.6875 12.7947 1.6875C14.1869 1.6875 15.5369 1.95938 16.8072 2.49609C18.0353 3.01641 19.1369 3.75937 20.0861 4.70625C21.033 5.65312 21.7783 6.75703 22.2963 7.98516C22.8353 9.25781 23.1072 10.6078 23.1072 12C23.1072 13.3922 22.8353 14.7422 22.2986 16.0125C21.7783 17.2406 21.0353 18.3445 20.0861 19.2914ZM15.565 16.5376H13.5681V8.33213C13.5681 7.86572 13.1908 7.48838 12.7244 7.48838H11.8806H10.4744C10.008 7.48838 9.63062 7.86572 9.63062 8.33213C9.63062 8.79854 10.008 9.17588 10.4744 9.17588H11.8806V16.5376H9.88375C9.41734 16.5376 9.04 16.9149 9.04 17.3813C9.04 17.8478 9.41734 18.2251 9.88375 18.2251H11.8806H13.5681H15.565C16.0314 18.2251 16.4087 17.8478 16.4087 17.3813C16.4087 16.9149 16.0314 16.5376 15.565 16.5376ZM11.8806 5.16797C11.8806 4.70198 12.2584 4.32422 12.7244 4.32422C13.1904 4.32422 13.5681 4.70198 13.5681 5.16797C13.5681 5.63396 13.1904 6.01172 12.7244 6.01172C12.2584 6.01172 11.8806 5.63396 11.8806 5.16797Z" fill="#501FA5"/>
</svg>
