<svg width="199" height="50" viewBox="0 0 199 50" fill="none" xmlns="http://www.w3.org/2000/svg">
<path d="M77.4897 32.2881C79.6055 30.1723 80.6486 27.6094 80.6486 24.5697C80.6486 21.5301 79.6055 18.9672 77.4897 16.8811C75.3738 14.7653 72.811 13.7223 69.8011 13.7223C66.7912 13.7223 64.2284 14.7653 62.1125 16.8811C60.0265 18.9672 58.9834 21.5301 58.9834 24.5697C58.9834 27.6094 60.0265 30.1723 62.1125 32.2881C64.2284 34.3742 66.7912 35.4172 69.8011 35.4172C72.811 35.4172 75.3738 34.3742 77.4897 32.2881ZM65.0032 29.4869C63.7217 28.2054 63.0661 26.5664 63.0661 24.5697C63.0661 22.5731 63.7217 20.934 65.0032 19.6526C66.2846 18.3712 67.8939 17.7156 69.8011 17.7156C71.7083 17.7156 73.3176 18.3712 74.599 19.6526C75.8805 20.934 76.5361 22.5731 76.5361 24.5697C76.5361 26.5664 75.8805 28.2054 74.599 29.4869C73.3176 30.7683 71.7083 31.3941 69.8011 31.3941C67.8939 31.3941 66.2846 30.7683 65.0032 29.4869ZM97.307 29.2783L94.5951 20.0996H90.9594L88.2475 29.2485L85.7145 20.0996H81.6318L86.3701 35H90.0356L92.7772 25.9704L95.5189 35H99.1844L103.923 20.0996H99.84L97.307 29.2783ZM109.541 35V13.2455H105.697V35H109.541ZM127.245 29.1293C127.334 28.563 127.394 28.0564 127.394 27.5498C127.394 25.3148 126.679 23.4671 125.248 21.9473C123.848 20.4274 122.03 19.6824 119.854 19.6824C117.56 19.6824 115.652 20.4274 114.192 21.9473C112.732 23.4373 111.987 25.3148 111.987 27.5498C111.987 29.8147 112.732 31.6921 114.222 33.1822C115.712 34.6722 117.679 35.4172 120.152 35.4172C123.013 35.4172 125.189 34.3444 126.649 32.2285L123.55 30.4405C122.805 31.4239 121.672 31.9305 120.212 31.9305C117.917 31.9305 116.517 31.0067 116.01 29.1293H127.245ZM115.95 26.1492C116.397 24.2419 117.798 23.1393 119.854 23.1393C121.612 23.1393 123.103 24.1227 123.55 26.1492H115.95ZM137.866 20.0996H134.499V15.9275L130.654 17.0897V20.0996H128.062V23.7949H130.654V29.9935C130.654 34.0762 132.591 35.596 137.866 35V31.5133C135.661 31.6325 134.499 31.6027 134.499 29.9935V23.7949H137.866V20.0996ZM144.803 26.3876H152.7V22.5135H144.803V18.0732H153.445V14.1395H140.69V35H153.594V31.0663H144.803V26.3876ZM164.3 27.371L169.516 20.0996H165.105L162.095 24.3015L159.085 20.0996H154.645L159.86 27.4008L154.407 35H158.847L162.095 30.4703L165.314 35H169.754L164.3 27.371Z" fill="#36344F"/>
<path d="M171.747 26.8301C172.214 26.3628 172.214 25.5981 171.747 25.1309C171.28 24.6636 170.515 24.6636 170.048 25.1309C169.581 25.5981 169.581 26.3628 170.048 26.8301C170.515 27.2974 171.28 27.2974 171.747 26.8301ZM176.144 27.1982C177.518 27.1982 178.722 26.4761 179.345 25.3574L177.759 24.4512C177.475 25.0317 176.867 25.3857 176.13 25.3857C175.578 25.3857 175.125 25.2017 174.771 24.8477C174.417 24.4795 174.233 24.0122 174.233 23.46C174.233 22.3271 175.04 21.52 176.13 21.52C176.852 21.52 177.461 21.8882 177.744 22.4687L179.316 21.5483C178.736 20.4297 177.518 19.7217 176.144 19.7217C175.082 19.7217 174.19 20.0757 173.468 20.7978C172.76 21.52 172.406 22.3979 172.406 23.46C172.406 24.522 172.76 25.3999 173.468 26.1221C174.19 26.8442 175.082 27.1982 176.144 27.1982ZM185.949 26.1221C186.671 25.3999 187.039 24.5078 187.039 23.46C187.039 22.4121 186.671 21.5342 185.949 20.812C185.227 20.0898 184.335 19.7217 183.287 19.7217C182.239 19.7217 181.347 20.0898 180.625 20.812C179.903 21.5342 179.549 22.4121 179.549 23.46C179.549 24.5078 179.903 25.3999 180.625 26.1221C181.347 26.8442 182.239 27.1982 183.287 27.1982C184.335 27.1982 185.227 26.8442 185.949 26.1221ZM181.913 24.8618C181.559 24.4936 181.375 24.0264 181.375 23.46C181.375 22.8935 181.559 22.4263 181.913 22.0581C182.282 21.6899 182.735 21.5059 183.287 21.5059C183.839 21.5059 184.292 21.6899 184.66 22.0581C185.029 22.4263 185.213 22.8935 185.213 23.46C185.213 24.0264 185.029 24.4936 184.66 24.8618C184.292 25.23 183.839 25.4141 183.287 25.4141C182.735 25.4141 182.282 25.23 181.913 24.8618ZM195.872 19.7217C194.937 19.7217 194.229 20.0615 193.762 20.7412C193.351 20.0615 192.7 19.7217 191.836 19.7217C190.944 19.7217 190.293 20.0332 189.868 20.6704V19.9199H188.041V27H189.868V23.021C189.868 21.9873 190.392 21.4209 191.199 21.4209C191.949 21.4209 192.388 21.9165 192.388 22.7661V27H194.215V23.021C194.215 21.9873 194.697 21.4209 195.532 21.4209C196.282 21.4209 196.721 21.9165 196.721 22.7661V27H198.548V22.6387C198.548 20.8686 197.5 19.7217 195.872 19.7217Z" fill="#36344F"/>
<circle cx="6" cy="25" r="6" fill="#36344F"/>
<circle cx="46" cy="25" r="6" fill="#36344F"/>
<path fill-rule="evenodd" clip-rule="evenodd" d="M0 0H6C14.178 0 21.4389 3.92672 26 9.99756C30.5611 3.92672 37.822 0 46 0H52V10H46C37.7157 10 31 16.7157 31 25L26 19L21 25C21 16.7157 14.2843 10 6 10H0V0ZM21 25L26 31L31 25C31 33.2843 37.7157 40 46 40H52V50H46C37.822 50 30.5611 46.0733 26 40.0024C21.4389 46.0733 14.178 50 6 50H0V40H6C14.2843 40 21 33.2843 21 25Z" fill="url(#paint0_linear)"/>
<defs>
<linearGradient id="paint0_linear" x1="0" y1="0" x2="52" y2="50" gradientUnits="userSpaceOnUse">
<stop offset="0.292818" stop-color="#501FA5"/>
<stop offset="0.696133" stop-color="#A419B2"/>
</linearGradient>
</defs>
</svg>
