<svg width="743" height="644" viewBox="0 0 743 644" fill="none" xmlns="http://www.w3.org/2000/svg">
<path d="M727.168 74.4429L636.9 120.185M473.5 147.5L579.128 262.291M473.5 147.5L636.9 120.185M473.5 147.5L285 262.291M579.128 262.291L738 334.54M579.128 262.291L636.9 120.185M579.128 262.291L727.168 549.5M707.309 4L636.9 120.185M727.168 549.5L285 262.291M727.168 549.5L285 471.5M727.168 549.5L285 640.537M285 471.5V262.291M285 471.5L3 320.743L285 640.537M285 471.5C285 537.513 285 574.524 285 640.537" stroke="#AE74E7" stroke-opacity="0.24"/>
<circle cx="285.149" cy="471.57" r="2.5" fill="white"/>
<circle cx="285.433" cy="262.868" r="2.5" fill="white"/>
<circle cx="4.5" cy="321.5" r="2.5" fill="white"/>
<circle cx="474.891" cy="147.895" r="2.5" fill="white"/>
<circle cx="578.74" cy="262.487" r="2.5" fill="white"/>
<circle cx="637.428" cy="119.523" r="2.5" fill="white"/>
<circle cx="284.782" cy="640.537" r="2.5" fill="white"/>
<circle cx="739.782" cy="335.537" r="2.5" fill="white"/>
<circle cx="728.782" cy="73.5366" r="2.5" fill="white"/>
<circle cx="707.782" cy="3.53656" r="2.5" fill="white"/>
<circle cx="726.782" cy="549.537" r="2.5" fill="white"/>
</svg>
