<svg width="641" height="580" viewBox="0 0 641 580" fill="none" xmlns="http://www.w3.org/2000/svg">
<path d="M579.977 577.909L413.429 577.909M413.429 577.909L251.83 469.833M413.429 577.909L476.825 303.291M413.429 577.909L593.945 454.545L476.825 303.291M251.83 469.833L476.825 303.291M251.83 469.833V324.643M251.83 469.833L2 335M476.825 303.291L579.977 4M476.825 303.291L638 204.6M476.825 303.291L251.83 324.643M476.825 303.291L158.772 135.945M251.83 324.643L158.772 135.945M251.83 324.643L2 335M158.772 135.945L2 335" stroke="#AE74E7" stroke-opacity="0.24"/>
<circle r="2.5" transform="matrix(1 0 0 -1 476.5 303.5)" fill="white"/>
<circle r="2.5" transform="matrix(1 0 0 -1 2.5 334.5)" fill="white"/>
<circle r="2.5" transform="matrix(1 0 0 -1 158.5 136.5)" fill="white"/>
<circle r="2.5" transform="matrix(1 0 0 -1 413.5 577.5)" fill="white"/>
<circle r="2.5" transform="matrix(1 0 0 -1 581.5 577.5)" fill="white"/>
<circle r="2.5" transform="matrix(1 0 0 -1 594.5 454.5)" fill="white"/>
<circle r="2.5" transform="matrix(1 0 0 -1 638.5 204.5)" fill="white"/>
<circle r="2.5" transform="matrix(1 0 0 -1 580.5 2.5)" fill="white"/>
<circle r="2.5" transform="matrix(1 0 0 -1 251.727 469.765)" fill="white"/>
</svg>
