<svg width="681" height="517" viewBox="0 0 681 517" fill="none" xmlns="http://www.w3.org/2000/svg">
<path d="M613.776 513.383L461.862 447.91M461.862 447.91L300.438 372.509M461.862 447.91L489.474 162.233M461.862 447.91L677.447 292.859L489.474 162.233M300.438 372.509L489.474 162.233M300.438 372.509L164.503 350.207M300.438 372.509L54.0553 454.591M489.474 162.233L611.977 4.04544M489.474 162.233L677.447 134.622M489.474 162.233L164.503 350.207M489.474 162.233L3.07947 122.94M164.503 350.207L3.07947 122.94M164.503 350.207L54.0553 454.591M3.07947 122.94L54.0553 454.591" stroke="#AE74E7" stroke-opacity="0.24"/>
<circle r="2.5" transform="matrix(1 0 0 -1 461.806 448.2)" fill="white"/>
<circle r="2.5" transform="matrix(1 0 0 -1 615.806 514.2)" fill="white"/>
<circle r="2.5" transform="matrix(1 0 0 -1 677.806 292.2)" fill="white"/>
<circle r="2.5" transform="matrix(1 0 0 -1 489.341 162.349)" fill="white"/>
<circle r="2.5" transform="matrix(1 0 0 -1 612.341 3.34912)" fill="white"/>
<circle r="2.5" transform="matrix(1 0 0 -1 677.341 134.349)" fill="white"/>
<circle r="2.5" transform="matrix(1 0 0 -1 3.07947 122.936)" fill="white"/>
<circle r="2.5" transform="matrix(1 0 0 -1 164.802 349.979)" fill="white"/>
<circle r="2.5" transform="matrix(1 0 0 -1 300.203 372.594)" fill="white"/>
<circle r="2.5" transform="matrix(1 0 0 -1 54.4415 455.139)" fill="white"/>
</svg>
