<svg width="32" height="32" viewBox="0 0 32 32" fill="none" xmlns="http://www.w3.org/2000/svg">
<g clip-path="url(#clip0)">
<path fill-rule="evenodd" clip-rule="evenodd" d="M31.9999 32H24.9275V20.7508C24.9275 17.8063 23.8212 15.7962 21.3884 15.7962C19.5277 15.7962 18.4929 17.1527 18.0112 18.46C17.8306 18.9292 17.8588 19.5828 17.8588 20.2365V32H10.8522C10.8522 32 10.9425 12.0731 10.8522 10.2617H17.8588V13.6734C18.2727 12.1817 20.5117 10.0527 24.0846 10.0527C28.5173 10.0527 31.9999 13.1796 31.9999 19.9127V32ZM3.7667 7.54252H3.72155C1.46378 7.54252 0 5.88075 0 3.77433C0 1.62694 1.50706 0 3.80998 0C6.11101 0 7.52588 1.62284 7.57103 3.76819C7.57103 5.8746 6.11101 7.54252 3.7667 7.54252ZM0.807292 10.2617H7.04436V32H0.807292V10.2617Z" fill="#501FA5"/>
</g>
<defs>
<clipPath id="clip0">
<rect width="32" height="32" fill="white"/>
</clipPath>
</defs>
</svg>
