<svg width="20" height="20" viewBox="0 0 20 20" fill="none" xmlns="http://www.w3.org/2000/svg">
<path fill-rule="evenodd" clip-rule="evenodd" d="M6.93333 0C12.5333 0 7.46667 0 13.0667 0C18.6667 0 20 1.33333 20 6.93333C20 12.5333 20 7.46667 20 13.0667C20 18.6667 18.6667 20 13.0667 20C7.46667 20 12.5333 20 6.93333 20C1.33333 20 0 18.6667 0 13.0667C0 7.46667 0 10.0605 0 6.93333C0 1.33333 1.33333 0 6.93333 0Z" fill="#1890ff"/>
<path fill-rule="evenodd" clip-rule="evenodd" d="M13.0244 0.536064C13.117 0.227059 13.0244 0 12.5833 0H11.125C10.7542 0 10.5833 0.196146 10.4905 0.412437C10.4905 0.412437 9.74893 2.2201 8.69833 3.39429C8.35844 3.73418 8.20393 3.84233 8.01852 3.84233C7.92583 3.84233 7.79165 3.73418 7.79165 3.4252V0.536064C7.79165 0.165258 7.68404 0 7.37501 0H5.08334C4.85162 0 4.71226 0.172099 4.71226 0.335205C4.71226 0.686722 5.23753 0.767787 5.29167 1.7566V3.90416C5.29167 4.375 5.20664 4.46037 5.02124 4.46037C4.52685 4.46037 3.32427 2.64463 2.61102 0.566952C2.47124 0.163124 2.33105 0 1.95834 0H0.500005C0.0833384 0 1.30208e-09 0.196146 1.30208e-09 0.412437C1.30208e-09 0.7987 0.494408 2.71451 2.30204 5.2483C3.50712 6.97867 5.20501 7.91667 6.75001 7.91667C7.677 7.91667 7.79167 7.70833 7.79167 7.34948V6.04167C7.79167 5.625 7.87949 5.54184 8.17304 5.54184C8.38933 5.54184 8.76014 5.64999 9.62535 6.48429C10.6141 7.47308 10.7772 7.91667 11.3333 7.91667H12.7917C13.2083 7.91667 13.4167 7.70833 13.2965 7.2972C13.165 6.88744 12.6929 6.29293 12.0665 5.58819C11.7265 5.18649 11.2167 4.75391 11.0622 4.53757C10.8459 4.25951 10.9077 4.13588 11.0622 3.8887C11.0622 3.8887 12.839 1.3858 13.0244 0.536064Z" transform="translate(3.35352 6.354)" fill="white"/>
</svg>
