<svg width="32" height="32" viewBox="0 0 32 32" fill="none" xmlns="http://www.w3.org/2000/svg">
<path fill-rule="evenodd" clip-rule="evenodd" d="M20.9067 0H11.0933C2.13333 0 0 2.13333 0 11.0933V20.9067C0 29.8667 2.13333 32 11.0933 32H20.9067C29.8667 32 32 29.8667 32 20.9067V11.0933C32 2.13333 29.8667 0 20.9067 0ZM25.5 10.1667C26.2057 10.1667 26.3539 10.53 26.2057 11.0244C25.909 12.3839 23.0662 16.3886 23.0662 16.3886C22.819 16.7841 22.7201 16.9819 23.0662 17.4268C23.1881 17.5974 23.4481 17.8522 23.7457 18.1436C24.0517 18.4434 24.3973 18.7819 24.673 19.1078C25.6753 20.2354 26.4307 21.1866 26.6411 21.8422C26.8334 22.5 26.5 22.8333 25.8334 22.8333H23.5C22.8751 22.8333 22.5604 22.4833 21.8803 21.7268C21.5921 21.4061 21.2382 21.0125 20.7673 20.5415C19.3829 19.2067 18.7896 19.0336 18.4436 19.0336C17.9739 19.0336 17.8334 19.1667 17.8334 19.8333V21.9258C17.8334 22.5 17.6499 22.8333 16.1667 22.8333C13.6947 22.8333 10.9781 21.3325 9.04997 18.5639C6.15775 14.5099 5.3667 11.4446 5.3667 10.8266C5.3667 10.4805 5.50004 10.1667 6.16671 10.1667H8.50004C9.09638 10.1667 9.32069 10.4277 9.54434 11.0738C10.6855 14.3981 12.6097 17.3033 13.4007 17.3033C13.6973 17.3033 13.8334 17.1667 13.8334 16.4133V12.9772C13.7798 11.9991 13.4382 11.5761 13.1851 11.2628C13.0288 11.0694 12.9063 10.9177 12.9063 10.703C12.9063 10.442 13.1293 10.1667 13.5 10.1667H17.1667C17.6612 10.1667 17.8333 10.4311 17.8333 11.0244V15.647C17.8333 16.1414 18.048 16.3144 18.1963 16.3144C18.493 16.3144 18.7402 16.1414 19.284 15.5975C20.965 13.7188 22.1516 10.8266 22.1516 10.8266C22.2999 10.4805 22.5734 10.1667 23.1667 10.1667H25.5Z" fill="#501FA5"/>
</svg>
